Coordinates
version=1
nRows=11
nColumns=40
inDegrees=yes

Units are S.I. units (second, meters, Newtons, ...)
If the header above contains a line with 'inDegrees', this indicates whether rotational values are in degrees (yes) or radians (no).

endheader
time	pelvis_tilt	pelvis_list	pelvis_rotation	pelvis_tx	pelvis_ty	pelvis_tz	hip_flexion_r	hip_adduction_r	hip_rotation_r	knee_angle_r	knee_angle_r_beta	ankle_angle_r	subtalar_angle_r	mtp_angle_r	hip_flexion_l	hip_adduction_l	hip_rotation_l	knee_angle_l	knee_angle_l_beta	ankle_angle_l	subtalar_angle_l	mtp_angle_l	lumbar_extension	lumbar_bending	lumbar_rotation	arm_flex_r	arm_add_r	arm_rot_r	elbow_flex_r	pro_sup_r	wrist_flex_r	wrist_dev_r	arm_flex_l	arm_add_l	arm_rot_l	elbow_flex_l	pro_sup_l	wrist_flex_l	wrist_dev_l
      5.75000000	      6.79012522	      2.28385072	     -0.53924926	     -0.43069659	      0.83243241	     -0.74263825	     42.32888224	     -0.70514458	     -6.15974394	     88.29042634	      1.54095864	     27.68426345	      0.00000000	      0.00000000	     57.84689570	     -2.60997901	     -4.41888774	      9.25859991	      0.16159305	     -9.78355322	      0.00000000	      0.00000000	    -23.84393255	      3.90656744	      5.37880983	     89.95767504	    -13.79374366	     16.94410452	     42.51731294	     81.86205051	      0.00000000	      0.00000000	     89.96396515	    -10.59341431	     16.96293400	     47.75619567	     80.80975179	      0.00000000	      0.00000000
      5.75500000	      6.86030411	      2.20246313	     -0.61358421	     -0.43097353	      0.83301007	     -0.74250676	     42.20702557	     -0.58317551	     -6.15967764	     88.11032188	      1.53781522	     27.39025611	      0.00000000	      0.00000000	     57.71400419	     -2.71930668	     -4.39325998	      9.18559525	      0.16031888	     -9.76414032	      0.00000000	      0.00000000	    -23.90837525	      3.96168055	      5.48111995	     89.95781184	    -13.77413596	     16.94086066	     42.41052936	     81.84001769	      0.00000000	      0.00000000	     89.96403413	    -10.55974316	     17.00046818	     47.64160415	     80.83366424	      0.00000000	      0.00000000
      5.76000000	      6.85050924	      2.20307396	     -0.63752193	     -0.43148993	      0.83331560	     -0.74269243	     42.23571622	     -0.59802662	     -6.15797872	     88.07289623	      1.53716202	     27.38503752	      0.00000000	      0.00000000	     57.71577085	     -2.71881963	     -4.38790188	      9.18323053	      0.16027761	     -9.76398982	      0.00000000	      0.00000000	    -23.90725731	      3.96645686	      5.48737846	     89.95784396	    -13.76862829	     16.92494211	     42.43975549	     81.83785668	      0.00000000	      0.00000000	     89.96404917	    -10.55042229	     16.98839154	     47.66789132	     80.83382653	      0.00000000	      0.00000000
      5.76500000	      6.83538273	      2.21262720	     -0.65527747	     -0.43187217	      0.83363001	     -0.74265207	     42.25912216	     -0.60396763	     -6.15971456	     88.01428255	      1.53613902	     27.37174691	      0.00000000	      0.00000000	     57.71686568	     -2.72330916	     -4.37834007	      9.18191280	      0.16025461	     -9.76928709	      0.00000000	      0.00000000	    -23.90374435	      3.95423556	      5.50573780	     89.95788824	    -13.76904778	     16.90962542	     42.46264955	     81.83507583	      0.00000000	      0.00000000	     89.96406556	    -10.54727138	     16.97884738	     47.69118522	     80.83483647	      0.00000000	      0.00000000
      5.77000000	      6.81842226	      2.22640167	     -0.70592329	     -0.43219596	      0.83402683	     -0.74259487	     42.23676023	     -0.59850791	     -6.13618063	     87.85769522	      1.53340605	     27.29005813	      0.00000000	      0.00000000	     57.71529094	     -2.75299419	     -4.34780096	      9.18453528	      0.16030038	     -9.80109162	      0.00000000	      0.00000000	    -23.88767467	      3.92172998	      5.55021432	     89.95776884	    -13.76723795	     16.88892210	     42.44611627	     81.82629177	      0.00000000	      0.00000000	     89.96404357	    -10.54238716	     16.97866707	     47.70064672	     80.84003662	      0.00000000	      0.00000000
      5.77500000	      6.81082964	      2.22738814	     -0.71113911	     -0.43250074	      0.83434129	     -0.74261568	     42.25085881	     -0.59764801	     -6.13517667	     87.83161888	      1.53295094	     27.28225468	      0.00000000	      0.00000000	     57.71322706	     -2.74696472	     -4.34875900	      9.18173910	      0.16025158	     -9.80217140	      0.00000000	      0.00000000	    -23.87983701	      3.92020115	      5.54749751	     89.95763942	    -13.76465672	     16.87477206	     42.46902604	     81.82386621	      0.00000000	      0.00000000	     89.96399858	    -10.53176176	     16.96828648	     47.72383972	     80.84014816	      0.00000000	      0.00000000
      5.78000000	      6.80064298	      2.22988103	     -0.70173321	     -0.43261122	      0.83463602	     -0.74253437	     42.24964152	     -0.59996132	     -6.13661889	     87.79351694	      1.53228593	     27.26983519	      0.00000000	      0.00000000	     57.70664502	     -2.73229655	     -4.34935725	      9.18190621	      0.16025449	     -9.79947446	      0.00000000	      0.00000000	    -23.84995311	      3.90925607	      5.53629048	     89.95756452	    -13.76105223	     16.86250717	     42.48844799	     81.82125693	      0.00000000	      0.00000000	     89.96394995	    -10.51725937	     16.96399521	     47.73962495	     80.84091977	      0.00000000	      0.00000000
      5.78500000	      6.79019216	      2.24498977	     -0.66324114	     -0.43287628	      0.83513558	     -0.74259047	     42.19843405	     -0.64717793	     -6.15659588	     87.62227381	      1.52929718	     27.17367522	      0.00000000	      0.00000000	     57.70527232	     -2.68190556	     -4.33777669	      9.20465013	      0.16065145	     -9.80618767	      0.00000000	      0.00000000	    -23.83092587	      3.90457418	      5.49432943	     89.95760378	    -13.76723522	     16.84874208	     42.45721617	     81.81519302	      0.00000000	      0.00000000	     89.96400197	    -10.50417057	     16.99022695	     47.71221819	     80.84879071	      0.00000000	      0.00000000
      5.79000000	      6.78248710	      2.24366186	     -0.66105760	     -0.43321210	      0.83548509	     -0.74263674	     42.21201580	     -0.65775608	     -6.16555702	     87.59599846	      1.52883858	     27.16350861	      0.00000000	      0.00000000	     57.70258415	     -2.67183016	     -4.33665906	      9.20716998	      0.16069543	     -9.80706860	      0.00000000	      0.00000000	    -23.82296106	      3.91042939	      5.49016859	     89.95745616	    -13.75759922	     16.83952128	     42.47483266	     81.81320292	      0.00000000	      0.00000000	     89.96401766	    -10.49718241	     16.98263591	     47.73065179	     80.84887929	      0.00000000	      0.00000000
      5.79500000	      6.77348666	      2.25130782	     -0.61683305	     -0.43352435	      0.83596581	     -0.74266504	     42.17400751	     -0.72437692	     -6.23888862	     87.44786206	      1.52625312	     27.05928009	      0.00000000	      0.00000000	     57.71407421	     -2.62311686	     -4.31269348	      9.23542148	      0.16118851	     -9.83081243	      0.00000000	      0.00000000	    -23.78952564	      3.91362867	      5.44623483	     89.95745916	    -13.74666071	     16.86258629	     42.36901163	     81.80591869	      0.00000000	      0.00000000	     89.96400549	    -10.47636688	     17.02239455	     47.70255503	     80.85651468	      0.00000000	      0.00000000
      5.80000000	      6.76948638	      2.24902626	     -0.60850408	     -0.43379855	      0.83630812	     -0.74267843	     42.18624623	     -0.73496465	     -6.24592346	     87.42182452	      1.52579868	     27.04847272	      0.00000000	      0.00000000	     57.70945081	     -2.61076806	     -4.31180076	      9.23938635	      0.16125771	     -9.83245569	      0.00000000	      0.00000000	    -23.77222432	      3.91986671	      5.43377642	     89.95743928	    -13.74857733	     16.85034098	     42.38817647	     81.80383581	      0.00000000	      0.00000000	     89.96396931	    -10.46637792	     17.01555760	     47.72382337	     80.85699622	      0.00000000	      0.00000000
